<svg width="800" height="500" viewBox="0 0 800 500" fill="none" xmlns="http://www.w3.org/2000/svg" role="img" aria-label="Assets library placeholder">
  <rect width="800" height="500" fill="#ffffff"/>
  <!-- Avatar group -->
  <rect x="40" y="40" width="70" height="22" rx="11" fill="#8b5cf6" opacity="0.12"/>
  <rect x="54" y="48" width="44" height="7" rx="3" fill="#8b5cf6"/>
  <rect x="40" y="74" width="340" height="380" rx="14" fill="none" stroke="#8b5cf6" stroke-opacity="0.4" stroke-width="2" stroke-dasharray="6 6"/>
  <g fill="#e4e4e7">
    <circle cx="100" cy="134" r="30"/><circle cx="180" cy="134" r="30"/><circle cx="260" cy="134" r="30"/><circle cx="340" cy="134" r="30"/>
    <circle cx="100" cy="214" r="30"/><circle cx="180" cy="214" r="30"/><circle cx="260" cy="214" r="30"/><circle cx="340" cy="214" r="30"/>
    <circle cx="100" cy="294" r="30"/><circle cx="180" cy="294" r="30"/><circle cx="260" cy="294" r="30"/><circle cx="340" cy="294" r="30"/>
    <circle cx="100" cy="374" r="30"/><circle cx="180" cy="374" r="30"/><circle cx="260" cy="374" r="30"/><circle cx="340" cy="374" r="30"/>
  </g>
  <g fill="#d4d4d8">
    <circle cx="100" cy="124" r="11"/><circle cx="180" cy="124" r="11"/><circle cx="260" cy="124" r="11"/><circle cx="340" cy="124" r="11"/>
    <circle cx="100" cy="204" r="11"/><circle cx="180" cy="204" r="11"/><circle cx="260" cy="204" r="11"/><circle cx="340" cy="204" r="11"/>
    <circle cx="100" cy="284" r="11"/><circle cx="180" cy="284" r="11"/><circle cx="260" cy="284" r="11"/><circle cx="340" cy="284" r="11"/>
    <circle cx="100" cy="364" r="11"/><circle cx="180" cy="364" r="11"/><circle cx="260" cy="364" r="11"/><circle cx="340" cy="364" r="11"/>
  </g>
  <!-- Flag group -->
  <rect x="420" y="40" width="60" height="22" rx="11" fill="#8b5cf6" opacity="0.12"/>
  <rect x="434" y="48" width="32" height="7" rx="3" fill="#8b5cf6"/>
  <rect x="420" y="74" width="340" height="380" rx="14" fill="none" stroke="#8b5cf6" stroke-opacity="0.4" stroke-width="2" stroke-dasharray="6 6"/>
  <g>
    <circle cx="480" cy="134" r="26" fill="#dc2626"/><circle cx="560" cy="134" r="26" fill="#16a34a"/><circle cx="640" cy="134" r="26" fill="#2563eb"/><circle cx="720" cy="134" r="26" fill="#eab308"/>
    <circle cx="480" cy="214" r="26" fill="#0ea5e9"/><circle cx="560" cy="214" r="26" fill="#ef4444"/><circle cx="640" cy="214" r="26" fill="#22c55e"/><circle cx="720" cy="214" r="26" fill="#8b5cf6"/>
    <circle cx="480" cy="294" r="26" fill="#f97316"/><circle cx="560" cy="294" r="26" fill="#14b8a6"/><circle cx="640" cy="294" r="26" fill="#ec4899"/><circle cx="720" cy="294" r="26" fill="#3b82f6"/>
    <circle cx="480" cy="374" r="26" fill="#a3a3a3"/><circle cx="560" cy="374" r="26" fill="#dc2626"/><circle cx="640" cy="374" r="26" fill="#0891b2"/><circle cx="720" cy="374" r="26" fill="#65a30d"/>
  </g>
</svg>
