<svg width="800" height="500" viewBox="0 0 800 500" fill="none" xmlns="http://www.w3.org/2000/svg" role="img" aria-label="Store template placeholder">
  <rect width="800" height="500" fill="#ffffff"/>
  <!-- announcement bar -->
  <rect x="40" y="28" width="720" height="26" rx="6" fill="#f84416"/>
  <rect x="300" y="38" width="200" height="6" rx="3" fill="#ffffff" opacity="0.7"/>
  <!-- nav -->
  <rect x="40" y="70" width="120" height="12" rx="6" fill="#27272a"/>
  <rect x="560" y="72" width="40" height="8" rx="4" fill="#a1a1aa"/>
  <rect x="612" y="72" width="40" height="8" rx="4" fill="#a1a1aa"/>
  <rect x="664" y="72" width="40" height="8" rx="4" fill="#a1a1aa"/>
  <rect x="730" y="68" width="30" height="16" rx="8" fill="#e4e4e7"/>
  <!-- hero image -->
  <rect x="40" y="104" width="340" height="280" rx="14" fill="#e4e4e7"/>
  <circle cx="210" cy="220" r="46" fill="#d4d4d8"/>
  <rect x="120" y="300" width="180" height="10" rx="5" fill="#c4c4cb"/>
  <rect x="150" y="320" width="120" height="8" rx="4" fill="#d4d4d8"/>
  <!-- product card 1 -->
  <rect x="400" y="104" width="170" height="280" rx="14" fill="#f4f4f5"/>
  <rect x="400" y="104" width="170" height="190" rx="14" fill="#e4e4e7"/>
  <rect x="420" y="312" width="110" height="9" rx="4" fill="#c4c4cb"/>
  <rect x="420" y="330" width="70" height="7" rx="3" fill="#d4d4d8"/>
  <rect x="420" y="352" width="74" height="20" rx="6" fill="#27272a"/>
  <!-- product card 2 -->
  <rect x="590" y="104" width="170" height="280" rx="14" fill="#f4f4f5"/>
  <rect x="590" y="104" width="170" height="190" rx="14" fill="#e4e4e7"/>
  <rect x="610" y="312" width="110" height="9" rx="4" fill="#c4c4cb"/>
  <rect x="610" y="330" width="70" height="7" rx="3" fill="#d4d4d8"/>
  <rect x="610" y="352" width="74" height="20" rx="6" fill="#27272a"/>
  <!-- footer hint -->
  <rect x="40" y="420" width="200" height="14" rx="7" fill="#e4e4e7"/>
</svg>
